<svg viewBox="0 0 110 34" fill="none" xmlns="http://www.w3.org/2000/svg">
<path d="M4.75 33.25V28.5H0V23.75H9.5V28.5H23.75V19H4.75V14.25H0V4.75H4.75V0H28.5V4.75H33.25V9.5H23.75V4.75H9.5V14.25H28.5V19H33.25V28.5H28.5V33.25H4.75ZM80.75 33.25V28.5H76V23.75H85.5V28.5H99.75V19H80.75V14.25H76V4.75H80.75V0H104.5V4.75H109.25V9.5H99.75V4.75H85.5V14.25H104.5V19H109.25V28.5H104.5V33.25H80.75Z" fill="#F1F1F1"/>
<path d="M42.75 33.25V28.5H38V14.25H42.75V9.5H66.5V14.25H71.25V23.75H47.5V28.5H66.5V33.25H42.75ZM47.5 19H61.75V14.25H47.5V19Z" fill="#5969F7"/>
</svg>
